<svg xmlns="http://www.w3.org/2000/svg" xmlns:svg="http://www.w3.org/2000/svg" id="svg5548" width="16.002" height="15.996" version="1.1" viewBox="0 0 16.002 15.996"><metadata id="metadata5553"/><g id="layer1" transform="translate(-294.24098,-358.4934)"><g style="display:inline;fill:#df382c" id="g5891" transform="matrix(0.66648033,0,0,-0.66648033,219.59519,686.64313)"><rect id="rect5893" width="24" height="24" x="468.362" y="-136" transform="matrix(0,1,-1,0,0,0)" style="color:#000;display:inline;overflow:visible;visibility:visible;fill:none;fill-opacity:.11527375;stroke:none;stroke-width:4;marker:none;enable-background:accumulate"/><circle id="circle5899" cx="124" cy="-489.362" r="3" d="m 127,-489.36221 a 3,3 0 0 1 -3,3 3,3 0 0 1 -3,-3 3,3 0 0 1 3,-3 3,3 0 0 1 3,3 z" transform="scale(1,-1)" style="color:#000;display:inline;overflow:visible;visibility:visible;opacity:1;fill:gray;fill-opacity:1;fill-rule:nonzero;stroke:none;stroke-width:.5;stroke-linecap:butt;stroke-linejoin:miter;stroke-miterlimit:4;stroke-dasharray:none;stroke-dashoffset:0;stroke-opacity:1;marker:none;enable-background:accumulate"/><rect id="rect5902" width="12" height="1.5" x="118.004" y="-484.867" transform="scale(1,-1)" style="color:#000;display:inline;overflow:visible;visibility:visible;opacity:1;fill:gray;fill-opacity:1;fill-rule:nonzero;stroke:none;stroke-width:.5;stroke-linecap:butt;stroke-linejoin:miter;stroke-miterlimit:4;stroke-dasharray:none;stroke-dashoffset:0;stroke-opacity:1;marker:none;enable-background:accumulate"/><rect id="rect5904" width="3.001" height="18.005" x="122.505" y="-487.868" transform="scale(1,-1)" style="color:#000;display:inline;overflow:visible;visibility:visible;opacity:1;fill:gray;fill-opacity:1;fill-rule:nonzero;stroke:none;stroke-width:.5;stroke-linecap:butt;stroke-linejoin:miter;stroke-miterlimit:4;stroke-dasharray:none;stroke-dashoffset:0;stroke-opacity:1;marker:none;enable-background:accumulate"/><path id="path5913" d="m 124.00576,471.33827 q 3.05045,0 5.70408,0.91762 2.67843,0.91761 4.91047,2.55443 l 1.38881,-2.10803 q -2.40564,-2.00883 -5.48088,-3.17443 -3.05043,-1.16562 -6.52248,-1.16562 -3.47205,0 -6.54729,1.16562 -3.05043,1.1656 -5.45607,3.17443 l 1.38883,2.10803 q 2.20722,-1.63682 4.88565,-2.55443 2.67843,-0.91762 5.72888,-0.91762 z" style="font-style:normal;font-variant:normal;font-weight:500;font-stretch:normal;font-size:medium;line-height:125%;font-family:Ubuntu;-inkscape-font-specification:'Ubuntu Medium';text-align:end;letter-spacing:0;word-spacing:0;writing-mode:lr-tb;text-anchor:end;fill:gray;fill-opacity:1;stroke:none;stroke-width:1px;stroke-linecap:butt;stroke-linejoin:miter;stroke-opacity:1"/></g></g></svg>