<svg xmlns="http://www.w3.org/2000/svg" xmlns:svg="http://www.w3.org/2000/svg" id="svg5918" width="16" height="16" version="1.1" viewBox="0 0 16 16"><metadata id="metadata5923"/><g id="layer1" transform="translate(-182.93849,-560.72008)"><g style="display:inline" id="g5346" transform="translate(-769.06151,404.35792)"><rect id="rect5348" width="16" height="16" x="952" y="156.362" style="color:#000;display:inline;overflow:visible;visibility:visible;opacity:1;fill:none;fill-opacity:1;fill-rule:nonzero;stroke:none;stroke-width:1.5;stroke-linecap:butt;stroke-linejoin:miter;stroke-miterlimit:4;stroke-dasharray:1.5,1.5;stroke-dashoffset:.60000002;stroke-opacity:1;marker:none;enable-background:accumulate"/><g style="display:inline" id="g5302" transform="matrix(0.66666667,0,0,0.66666667,877.34853,-235.87928)"><rect id="rect5304" width="24" height="24" x="588.362" y="112" transform="matrix(0,1,1,0,0,0)" style="color:#000;display:inline;overflow:visible;visibility:visible;opacity:.05;fill:none;stroke:none;stroke-width:2;marker:none;enable-background:accumulate"/><ellipse id="ellipse5306" cx="457.765" cy="-407.384" rx="8.172" ry="8.185" transform="matrix(-0.49964996,0.8662274,-0.86582319,-0.50035008,0,0)" style="color:#000;display:inline;overflow:visible;visibility:visible;fill:none;stroke:gray;stroke-width:3.38089561;stroke-miterlimit:4;stroke-dasharray:none;marker:none;enable-background:accumulate"/><path id="path5308" d="m 125.9722,588.53745 -3.94436,0 0,4.2257 3.94436,0 0,-4.2257 z" style="color:#000;display:inline;overflow:visible;visibility:visible;fill:gray;fill-opacity:1;fill-rule:nonzero;stroke:none;stroke-width:2;marker:none;enable-background:accumulate"/><path style="color:#000;display:inline;overflow:visible;visibility:visible;fill:gray;fill-opacity:1;fill-rule:nonzero;stroke:none;stroke-width:2;marker:none;enable-background:accumulate" id="path5310" d="m 133.11971,592.5619 -3.03785,-2.51598 -2.70808,3.22737 3.02155,2.53536 2.72429,-3.24667 z"/><path id="path5312" d="m 136,600.24884 -0.70989,-3.88005 -4.14903,0.73159 0.68495,3.88442 4.17385,-0.73596 z" style="color:#000;display:inline;overflow:visible;visibility:visible;fill:gray;fill-opacity:1;fill-rule:nonzero;stroke:none;stroke-width:2;marker:none;enable-background:accumulate"/><path style="color:#000;display:inline;overflow:visible;visibility:visible;fill:gray;fill-opacity:1;fill-rule:nonzero;stroke:none;stroke-width:2;marker:none;enable-background:accumulate" id="path5315" d="m 133.26535,607.98879 1.95025,-3.4286 -3.6486,-2.10649 -1.97216,3.41588 3.67042,2.11912 z"/><path id="path5317" d="m 126.19536,612.16014 3.69783,-1.37288 -1.44095,-3.95894 -3.70645,1.34906 1.44955,3.98261 z" style="color:#000;display:inline;overflow:visible;visibility:visible;fill:gray;fill-opacity:1;fill-rule:nonzero;stroke:none;stroke-width:2;marker:none;enable-background:accumulate"/><path style="color:#000;display:inline;overflow:visible;visibility:visible;fill:gray;fill-opacity:1;fill-rule:nonzero;stroke:none;stroke-width:2;marker:none;enable-background:accumulate" id="path5319" d="m 118.09814,610.81107 3.71517,1.32523 1.44091,-3.95894 -3.70646,-1.34904 -1.44955,3.98263 z"/><path id="path5321" d="m 112.76246,604.57284 1.99415,3.40324 3.64858,-2.10652 -1.97218,-3.4159 -3.67041,2.11912 z" style="color:#000;display:inline;overflow:visible;visibility:visible;fill:gray;fill-opacity:1;fill-rule:nonzero;stroke:none;stroke-width:2;marker:none;enable-background:accumulate"/><path style="color:#000;display:inline;overflow:visible;visibility:visible;fill:gray;fill-opacity:1;fill-rule:nonzero;stroke:none;stroke-width:2;marker:none;enable-background:accumulate" id="path5323" d="m 112.68496,596.36436 -0.65995,3.88885 4.14901,0.73156 0.68491,-3.88441 -4.17382,-0.73593 z"/><path id="path5327" d="m 117.9019,590.02648 -3.00526,2.55483 2.70809,3.22734 3.02152,-2.53538 -2.72428,-3.24665 z" style="color:#000;display:inline;overflow:visible;visibility:visible;fill:gray;fill-opacity:1;fill-rule:nonzero;stroke:none;stroke-width:2;marker:none;enable-background:accumulate"/></g></g></g></svg>