<svg xmlns="http://www.w3.org/2000/svg" xmlns:svg="http://www.w3.org/2000/svg" id="svg5918" width="24" height="24" version="1.1" viewBox="0 0 24 24"><defs id="defs5920"><clipPath id="clipPath16" clipPathUnits="userSpaceOnUse"><path id="path18" d="m 0,595.28 841.89,0 L 841.89,0 0,0 0,595.28 Z"/></clipPath><clipPath id="clipPath16-0" clipPathUnits="userSpaceOnUse"><path id="path18-1" d="m 0,595.28 841.89,0 L 841.89,0 0,0 0,595.28 Z"/></clipPath></defs><metadata id="metadata5923"/><g id="layer1" transform="translate(-182.93849,-552.7201)"><g style="display:inline" id="g5346" transform="translate(-769.06151,404.35792)"><path style="color:#000;clip-rule:nonzero;display:inline;overflow:visible;visibility:visible;opacity:1;isolation:auto;mix-blend-mode:normal;color-interpolation:sRGB;color-interpolation-filters:linearRGB;solid-color:#000;solid-opacity:1;fill:#38b44a;fill-opacity:1;fill-rule:nonzero;stroke:none;stroke-width:1;stroke-linecap:butt;stroke-linejoin:miter;stroke-miterlimit:4;stroke-dasharray:none;stroke-dashoffset:0;stroke-opacity:1;marker:none;color-rendering:auto;image-rendering:auto;shape-rendering:auto;text-rendering:auto;enable-background:accumulate;filter-blend-mode:normal;filter-gaussianBlur-deviation:0" id="path4143" d="M 12 0 A 12.000055 12.000014 0 0 0 0 12 A 12.000055 12.000014 0 0 0 12 24 A 12.000055 12.000014 0 0 0 24 12 A 12.000055 12.000014 0 0 0 12 0 z M 18.619141 7.0058594 L 19.863281 8.4101562 L 10.078125 18.707031 L 3.6445312 11.939453 L 5.1386719 10.251953 L 10.076172 14.488281 L 18.501953 7.109375 L 18.619141 7.0058594 z" transform="translate(952,148.36218)"/></g></g></svg>