<svg xmlns="http://www.w3.org/2000/svg" xmlns:svg="http://www.w3.org/2000/svg" id="svg5918" width="16" height="16" version="1.1" viewBox="0 0 16 16"><defs id="defs5920"><clipPath id="clipPath16" clipPathUnits="userSpaceOnUse"><path id="path18" d="m 0,595.28 841.89,0 L 841.89,0 0,0 0,595.28 Z"/></clipPath><clipPath id="clipPath16-0" clipPathUnits="userSpaceOnUse"><path id="path18-1" d="m 0,595.28 841.89,0 L 841.89,0 0,0 0,595.28 Z"/></clipPath><clipPath id="clipPath16-9" clipPathUnits="userSpaceOnUse"><path id="path18-3" d="m 0,595.28 841.89,0 L 841.89,0 0,0 0,595.28 Z"/></clipPath><clipPath id="clipPath16-7" clipPathUnits="userSpaceOnUse"><path id="path18-7" d="m 0,595.28 841.89,0 L 841.89,0 0,0 0,595.28 Z"/></clipPath></defs><metadata id="metadata5923"/><g id="layer1" transform="translate(-182.93849,-560.7201)"><g style="display:inline" id="g5346" transform="translate(-769.06151,404.35792)"><g style="display:inline" id="g4311" transform="matrix(0.66666668,0,0,0.66666668,877.33333,-22.545946)"><rect style="color:#000;display:inline;overflow:visible;visibility:visible;fill:none;stroke:none;stroke-width:7.5;marker:none;enable-background:accumulate" id="rect4313" width="24" height="24" x="112" y="268.362"/><rect style="color:#000;display:inline;overflow:visible;visibility:visible;fill:none;stroke:none;stroke-width:7.5;marker:none;enable-background:accumulate" id="rect4315" width="24" height="24" x="112" y="268.362"/><path style="color:#000;display:inline;overflow:visible;visibility:visible;fill:gray;fill-opacity:1;fill-rule:nonzero;stroke:none;stroke-width:3;marker:none;enable-background:accumulate" id="path4323" d="m 130.26155,268.38263 -14.46053,14.72044 c 0,0 -2.74088,4.30014 -3.78053,9.22545 5.7e-4,2.8e-4 6.5e-4,0 0.001,0.003 2.8e-4,0 1.5e-4,0 0.001,0.003 2.8e-4,0 -3.7e-4,0 5.1e-4,0.003 2.8e-4,2.4e-4 3.6e-4,0.003 0.001,0.003 4.9337,-1.03964 9.23411,-3.78053 9.23411,-3.78053 l 14.72043,-14.46083 z m -13.32952,15.85147 3.20576,3.20572 c -0.21573,0.12484 -3.25634,2.24881 -6.037,2.8348 -6.7e-4,0 -2.9e-4,-0.003 -5.1e-4,-0.003 -5.3e-4,-0.003 -3.5e-4,-0.003 -5.3e-4,-0.003 -5.2e-4,-0.003 -3.4e-4,-0.003 -5.2e-4,-0.003 -5.2e-4,-0.003 -6.5e-4,-0.003 -0.001,-0.003 0.5852,-2.77237 2.70627,-5.80941 2.83379,-6.02986 z"/><path style="color:#000;display:inline;overflow:visible;visibility:visible;fill:gray;fill-opacity:1;fill-rule:nonzero;stroke:none;stroke-width:9;marker:none;enable-background:accumulate" id="path4325" d="m 114.73356,287.86219 1.85036,1.85034 -3.08392,1.14966 z"/></g></g></g></svg>