<svg xmlns="http://www.w3.org/2000/svg" xmlns:xlink="http://www.w3.org/1999/xlink" id="Layer_1" width="20" height="20" x="0" y="0" enable-background="new 0 0 20 20" version="1.1" viewBox="0 0 20 20" xml:space="preserve"><g><g><path fill="#26B4E9" d="M10,3c3.859,0,7,3.14,7,7c0,3.859-3.141,7-7,7c-3.86,0-7-3.141-7-7C3,6.14,6.14,3,10,3 M10,0 C4.477,0,0,4.477,0,10c0,5.522,4.477,10,10,10c5.522,0,10-4.478,10-10C20,4.477,15.522,0,10,0L10,0z"/></g><polygon fill="#DF382C" points="10 12.875 5 12.875 7.5 8.545 10 4.215 12.5 8.545 15 12.875"/></g></svg>