<svg xmlns="http://www.w3.org/2000/svg" xmlns:svg="http://www.w3.org/2000/svg" id="svg5918" width="16" height="16" version="1.1" viewBox="0 0 16 16"><metadata id="metadata5923"/><g id="layer1" transform="translate(-182.93849,-560.72008)"><g style="display:inline" id="g6246" transform="translate(-769.06151,404.35791)"><rect id="rect6248" width="16" height="16" x="952" y="156.362" style="color:#000;display:inline;overflow:visible;visibility:visible;opacity:1;fill:none;fill-opacity:1;fill-rule:nonzero;stroke:none;stroke-width:1.5;stroke-linecap:butt;stroke-linejoin:miter;stroke-miterlimit:4;stroke-dasharray:1.5,1.5;stroke-dashoffset:.60000002;stroke-opacity:1;marker:none;enable-background:accumulate"/><circle id="circle6250" cx="960" cy="164.362" r="7.25" style="color:#000;display:inline;overflow:visible;visibility:visible;opacity:1;fill:none;fill-opacity:1;fill-rule:nonzero;stroke:#2ab7ec;stroke-width:1.5;stroke-linecap:butt;stroke-linejoin:miter;stroke-miterlimit:4;stroke-dasharray:none;stroke-dashoffset:.80000001;stroke-opacity:1;marker:none;enable-background:accumulate"/><path id="path6261" d="m 960.99918,160.29885 q 0,0.93257 -0.17763,1.79852 -0.15543,0.84375 -0.33306,1.75412 0.79934,-0.44408 1.57648,-0.86596 0.77714,-0.42187 1.68751,-0.73273 l 0.13322,-0.0444 0.62171,1.86514 -0.17763,0.0666 q -0.88816,0.33306 -1.77632,0.44408 -0.88816,0.0888 -1.82073,0.15543 0.73273,0.62171 1.37665,1.22122 0.64392,0.5773 1.19902,1.35444 l 0.11102,0.15543 -1.6209,1.1324 -0.0888,-0.13322 q -0.5329,-0.79934 -0.93257,-1.57648 -0.37747,-0.79935 -0.77714,-1.6431 -0.39967,0.84375 -0.79934,1.6431 -0.37747,0.77714 -0.91037,1.57648 l -0.0888,0.13322 -1.6209,-1.1324 0.11102,-0.15543 q 0.5551,-0.77714 1.19902,-1.35444 0.64392,-0.59951 1.37665,-1.22122 -0.93257,-0.0666 -1.82073,-0.15543 -0.88816,-0.11102 -1.77632,-0.44408 l -0.17763,-0.0666 0.62171,-1.86514 0.13322,0.0444 q 0.91037,0.31086 1.68751,0.73273 0.77714,0.42188 1.57648,0.86596 -0.17763,-0.91037 -0.35526,-1.75412 -0.15543,-0.86595 -0.15543,-1.79852 l 0,-0.17763 1.99836,0 0,0.17763 z" style="font-style:normal;font-variant:normal;font-weight:400;font-stretch:normal;font-size:medium;line-height:125%;font-family:Ubuntu;-inkscape-font-specification:Ubuntu;text-align:center;letter-spacing:0;word-spacing:0;writing-mode:lr-tb;text-anchor:middle;fill:#2ab7ec;fill-opacity:1;stroke:none;stroke-width:1px;stroke-linecap:butt;stroke-linejoin:miter;stroke-opacity:1"/></g></g></svg>