<svg xmlns="http://www.w3.org/2000/svg" xmlns:svg="http://www.w3.org/2000/svg" xmlns:xlink="http://www.w3.org/1999/xlink" id="svg2" width="96" height="96" x="0" y="0" enable-background="new 0 0 96 96" version="1.1" viewBox="0 0 96 96" xml:space="preserve"><g id="layer5" transform="translate(0,-961.5)"><g id="g4191" transform="translate(-163,59.538356)"><path id="path5663" fill="#BBB" d="M251.646,923.073c-1.216-0.097-2.471,0.066-3.68,0.359c-2.419,0.586-5.067,1.706-8.368,3.238l-16.007,7.433 c-6.601,3.065-11.006,5.599-13.643,9.928c-2.637,4.329-3.016,9.536-3.016,17.279v18.903c0,3.871,0.097,6.922,0.537,9.467 c0.44,2.545,1.257,4.904,3.369,6.41c2.111,1.505,4.709,1.435,7.128,0.849s5.067-1.706,8.368-3.238l0,0l16.007-7.433 c6.601-3.065,11.006-5.599,13.643-9.928c2.637-4.329,3.016-9.536,3.016-17.279v-18.903c0-3.871-0.097-6.922-0.537-9.467 c-0.44-2.545-1.257-4.904-3.369-6.41C254.039,923.528,252.862,923.17,251.646,923.073z M251.316,929.581 c-0.033-0.024,0.424,0.423,0.734,2.218c0.31,1.795,0.442,4.618,0.442,8.358v18.903c0,7.479-0.547,11.398-2.066,13.891 c-1.518,2.493-4.499,4.476-10.827,7.414l-15.35,7.128h-0.007l-0.651,0.305c-3.164,1.469-5.596,2.437-7.16,2.816 c-1.564,0.379-1.848,0.151-1.815,0.175c0.033,0.024-0.424-0.423-0.734-2.218c-0.31-1.795-0.442-4.618-0.442-8.358V961.31 c0-7.479,0.547-11.398,2.066-13.891c1.518-2.493,4.499-4.476,10.827-7.414l16.007-7.433c3.164-1.469,5.596-2.437,7.16-2.816 C251.064,929.377,251.349,929.605,251.316,929.581L251.316,929.581z"/><path id="path4448" fill="#BBB" d="M236.084,916.34c-0.923,0.019-1.855,0.165-2.762,0.385 c-2.419,0.586-5.067,1.706-8.368,3.238l-16.007,7.433c-6.601,3.065-11.006,5.599-13.643,9.928s-3.016,9.536-3.016,17.279v18.903 c0,3.871,0.097,6.922,0.537,9.467c0.44,2.545,1.257,4.904,3.369,6.41c2.111,1.505,4.709,1.435,7.128,0.849 c2.097-0.508,4.449-1.482,7.166-2.714c-0.01-0.088-0.023-0.161-0.032-0.251l-0.137,0.029v-1.815 c-0.085-1.438-0.118-3.112-0.124-4.967l-0.591,0.273h-0.007l-0.651,0.305c-3.164,1.469-5.596,2.437-7.16,2.816 c-1.564,0.379-1.848,0.151-1.815,0.175c0.033,0.024-0.424-0.423-0.734-2.218c-0.31-1.795-0.442-4.618-0.442-8.358v-18.903 c0-7.479,0.547-11.398,2.066-13.891c1.518-2.493,4.499-4.476,10.827-7.414l16.007-7.433c3.164-1.469,5.596-2.436,7.16-2.816 c1.564-0.379,1.848-0.151,1.815-0.175c-0.033-0.024,0.424,0.423,0.734,2.218c0.23,1.328,0.335,3.397,0.388,5.806l3.175-1.475 c1.215-0.564,2.24-0.998,3.267-1.427c-0.081-1.471-0.207-2.805-0.416-4.014c-0.44-2.545-1.257-4.904-3.369-6.41 c-1.056-0.753-2.232-1.11-3.448-1.208C236.698,916.341,236.391,916.334,236.084,916.34L236.084,916.34z"/><path id="path4457" fill="#BBB" d="M221.44,909.437c-0.923,0.019-1.855,0.165-2.762,0.385 c-2.419,0.586-5.067,1.706-8.368,3.238l-16.007,7.433c-6.601,3.065-11.006,5.599-13.643,9.928 c-2.637,4.329-3.016,9.536-3.016,17.279v18.903c0,3.871,0.097,6.922,0.537,9.467c0.44,2.545,1.257,4.904,3.369,6.41 c2.111,1.505,4.709,1.435,7.128,0.849c2.097-0.508,4.449-1.482,7.166-2.714c-0.01-0.088-0.023-0.161-0.032-0.251l-0.137,0.029 v-1.815c-0.085-1.438-0.118-3.112-0.124-4.967l-0.591,0.273h-0.007l-0.651,0.305c-3.164,1.469-5.596,2.437-7.16,2.816 c-1.564,0.379-1.848,0.151-1.815,0.175c0.033,0.024-0.424-0.423-0.734-2.218c-0.31-1.795-0.442-4.618-0.442-8.358V947.7 c0-7.479,0.547-11.398,2.066-13.891c1.518-2.493,4.499-4.476,10.827-7.414l16.007-7.433c3.164-1.469,5.596-2.437,7.16-2.816 c1.564-0.379,1.848-0.151,1.815-0.175c-0.033-0.024,0.424,0.423,0.734,2.218c0.23,1.328,0.335,3.397,0.388,5.806l3.175-1.475 c1.215-0.564,2.24-0.998,3.267-1.427c-0.081-1.471-0.207-2.805-0.416-4.014c-0.44-2.545-1.257-4.904-3.369-6.41 c-1.056-0.753-2.232-1.11-3.448-1.208C222.054,909.438,221.747,909.431,221.44,909.437L221.44,909.437z"/><path id="path4459" fill="#BBB" d="M206.796,902.599c-0.923,0.019-1.855,0.165-2.762,0.385 c-2.419,0.586-5.067,1.706-8.368,3.238l-16.007,7.433c-6.601,3.065-11.006,5.599-13.643,9.928 c-2.637,4.329-3.016,9.536-3.016,17.279v18.903c0,3.871,0.097,6.922,0.537,9.467c0.44,2.545,1.257,4.904,3.369,6.41 c2.111,1.505,4.709,1.435,7.128,0.849c2.097-0.508,4.449-1.482,7.166-2.714c-0.01-0.088-0.023-0.161-0.032-0.251l-0.137,0.029 v-1.815c-0.085-1.438-0.118-3.112-0.124-4.967l-0.591,0.273h-0.007l-0.651,0.305c-3.164,1.469-5.596,2.436-7.16,2.816 c-1.564,0.379-1.848,0.151-1.815,0.175c0.033,0.024-0.424-0.423-0.734-2.218c-0.31-1.795-0.442-4.618-0.442-8.358v-18.903 c0-7.479,0.547-11.398,2.066-13.891c1.518-2.493,4.499-4.476,10.827-7.414l16.007-7.433c3.164-1.469,5.596-2.437,7.16-2.816 c1.564-0.379,1.848-0.151,1.815-0.175c-0.033-0.024,0.424,0.423,0.734,2.218c0.23,1.328,0.335,3.397,0.388,5.806l3.175-1.475 c1.215-0.564,2.24-0.998,3.267-1.427c-0.081-1.471-0.207-2.805-0.416-4.014c-0.44-2.545-1.257-4.904-3.369-6.41 c-1.056-0.753-2.232-1.11-3.448-1.208C207.41,902.6,207.103,902.593,206.796,902.599L206.796,902.599z"/></g></g></svg>